<svg id="Layer_1" data-name="Layer 1" xmlns="http://www.w3.org/2000/svg" viewBox="0 0 48 48"><defs><style>.cls-1{fill:#f5930b;}.cls-2{fill:#fff;}</style></defs><title>FaviconArtboard 21 copy</title><rect class="cls-1" width="48" height="48"/><path class="cls-2" d="M46.5,19.78a22.78,22.78,0,0,1-.32,3.78,22.23,22.23,0,0,1-2.75,7.57c-.32.54-.66,1.07-1,1.58a22.32,22.32,0,0,1-3.59,4A21.17,21.17,0,0,1,37,38.15a22.28,22.28,0,0,1-2.79,1.69.68.68,0,0,1-.8-.12l-4-4a.68.68,0,0,1,.24-1.12,15.05,15.05,0,0,0,2.29-1.1A15.74,15.74,0,0,0,34.1,32a16,16,0,0,0,5.25-8.16h0a.68.68,0,0,0-.66-.86H30.3a.69.69,0,0,1-.49-1.17L35,16.65a.68.68,0,0,1,.49-.2H45.66a.68.68,0,0,1,.68.6A22.48,22.48,0,0,1,46.5,19.78Z"/><path class="cls-2" d="M23.92,34.3h0a3.18,3.18,0,0,1-3.15-3.18v-10l-7.68-7.68a2.47,2.47,0,0,1-.11-3.36,13.93,13.93,0,0,1,1.39-1.38h0a2.46,2.46,0,0,1,3.34.13l2.08,2.08,4.37,4.37L30.6,8.77a2.13,2.13,0,0,1,2.89-.11h0a15.24,15.24,0,0,1,1.84,1.93,2.13,2.13,0,0,1-.16,2.83l-1.85,1.85-4.1,4.1L28,20.67l-.68.68v9.77a3.19,3.19,0,0,1-3.15,3.18Z"/><path class="cls-2" d="M16.18,33.68a16.73,16.73,0,0,0,2.15,1,.68.68,0,0,1,.24,1.12l-3.93,3.94a.7.7,0,0,1-.8.13,22.84,22.84,0,0,1-2.68-1.6,24.61,24.61,0,0,1-2.05-1.61A22.75,22.75,0,0,1,5.7,32.86a20.58,20.58,0,0,1-1.13-1.73A22.24,22.24,0,0,1,1.5,20.07v-.59c0-.81.07-1.63.16-2.43a.68.68,0,0,1,.68-.6H12.53a.68.68,0,0,1,.49.2l5.17,5.17A.69.69,0,0,1,17.7,23H9.15a.68.68,0,0,0-.66.86h0a15.85,15.85,0,0,0,1.74,4.09A16,16,0,0,0,13.73,32,16.29,16.29,0,0,0,16.18,33.68Z"/></svg>