<svg id="Layer_1" data-name="Layer 1" xmlns="http://www.w3.org/2000/svg" viewBox="0 0 1866 306"><defs><style>.cls-1{fill:#f5930b;}</style></defs><title>Zandy AI LogoArtboard 24</title><path class="cls-1" d="M587.33,300.5V82.55h67.06q28.74,0,51.42,13a90.28,90.28,0,0,1,35.4,36.82q12.72,23.88,12.72,54.27v10q0,30.39-12.5,54a89.53,89.53,0,0,1-35.25,36.68q-22.75,13-51.34,13.17Zm44.91-181.57V264.42h21.7q26.34,0,40.27-17.21T708.43,198V186.44q0-33.24-13.77-50.37t-40.27-17.14Z"/><path class="cls-1" d="M883.16,180.75l45.36-98.2h49.1L906.06,221.46v79H860.41v-79L788.86,82.55h49.25Z"/><path class="cls-1" d="M1186.72,227.09q-2.48,34.16-25.22,53.78t-60,19.63q-40.71,0-64-27.4t-23.33-75.24V184.93q0-30.54,10.76-53.79t30.74-35.69q20-12.44,46.45-12.43,36.63,0,59,19.62t25.88,55.1H1143.4Q1141.79,137.25,1132,128t-29.88-9.23q-21.81,0-32.64,15.63t-11.12,48.48v16q0,34.32,10.4,50.16t32.78,15.84q20.21,0,30.16-9.23t11.42-28.56Z"/><path class="cls-1" d="M1422,196.86q0,31.15-11,54.64t-31.52,36.24q-20.52,12.76-47,12.76-26.23,0-46.82-12.61t-31.89-36q-11.31-23.42-11.46-53.85V187.58q0-31.17,11.24-54.87t31.74-36.38q20.52-12.69,46.9-12.68T1379,96.33q20.51,12.69,31.75,36.38T1422,187.43Zm-44.07-9.57q0-33.19-11.88-50.44t-33.92-17.25q-21.9,0-33.78,17t-12,49.93v10.3q0,32.32,11.89,50.15t34.21,17.83q21.88,0,33.63-17.18t11.88-50.08Z"/><path class="cls-1" d="M1487.79,300.5V82.55h67.07q28.74,0,51.41,13a90.28,90.28,0,0,1,35.4,36.82q12.74,23.88,12.73,54.27v10q0,30.39-12.5,54a89.53,89.53,0,0,1-35.25,36.68q-22.76,13-51.35,13.17Zm44.91-181.57V264.42h21.71q26.34,0,40.26-17.21T1608.89,198V186.44q0-33.24-13.77-50.37t-40.26-17.14Z"/><path class="cls-1" d="M1845.7,206.05h-86.22v58.37h101.19V300.5h-146.1V82.55h145.8v36.38H1759.48v51.94h86.22Z"/><path class="cls-1" d="M421.89,113.9a210.61,210.61,0,0,1-2.93,35A206.3,206.3,0,0,1,393.45,219c-2.92,5-6.1,9.92-9.41,14.64a209.85,209.85,0,0,1-33.21,36.93,212.9,212.9,0,0,1-17,13.41A209.54,209.54,0,0,1,308,299.65a6.35,6.35,0,0,1-7.39-1.16l-36.87-36.87a6.34,6.34,0,0,1,2.22-10.4,148.85,148.85,0,0,0,41.15-24.1,148.79,148.79,0,0,0,34-40.25,146.93,146.93,0,0,0,14.57-35.27h0a6.34,6.34,0,0,0-6.13-8H271.89a6.35,6.35,0,0,1-4.48-10.84l47.85-47.85a6.34,6.34,0,0,1,4.48-1.86h94.33a6.34,6.34,0,0,1,6.3,5.57A210.29,210.29,0,0,1,421.89,113.9Z"/><path class="cls-1" d="M212.84,248.35h-.3a29.4,29.4,0,0,1-29.2-29.47V126L112.29,55a22.76,22.76,0,0,1-1-31.11,136.33,136.33,0,0,1,12.81-12.74l.17-.15a22.7,22.7,0,0,1,30.89,1.22l19.27,19.27,40.43,40.42,59.84-59.84A19.69,19.69,0,0,1,301.47,11l.14.12A135.73,135.73,0,0,1,318.69,29a19.74,19.74,0,0,1-1.54,26.22l-17,17.06-38,38-11.94,11.93-6.31,6.31v90.41a29.52,29.52,0,0,1-29.19,29.48Z"/><path class="cls-1" d="M141.22,242.56a144.5,144.5,0,0,0,19.87,9.17,6.35,6.35,0,0,1,2.3,10.44l-36.47,36.47a6.35,6.35,0,0,1-7.37,1.17A208.77,208.77,0,0,1,94.76,285a210.75,210.75,0,0,1-18.94-14.88,208.52,208.52,0,0,1-31.65-35c-3.69-5.14-7.19-10.52-10.42-16A206.3,206.3,0,0,1,8.24,148.9a210.27,210.27,0,0,1-2.91-32.27v-5.46a213.4,213.4,0,0,1,1.5-22.52,6.35,6.35,0,0,1,6.31-5.58h94.33A6.34,6.34,0,0,1,112,84.93l47.85,47.85a6.35,6.35,0,0,1-4.49,10.84H76.13a6.34,6.34,0,0,0-6.13,8h0a145.84,145.84,0,0,0,16.12,37.86,148.33,148.33,0,0,0,55.1,53.1Z"/></svg>